<?xml version="1.0" standalone="no"?>
<!DOCTYPE svg PUBLIC "-//W3C//DTD SVG 1.1//EN" "http://www.w3.org/Graphics/SVG/1.1/DTD/svg11.dtd" >
<!--
2013-9-30: Created.
-->
<svg>
<metadata>
Created by iconfont
</metadata>
<defs>

<font id="iconfont" horiz-adv-x="1024" >
  <font-face
    font-family="iconfont"
    font-weight="500"
    font-stretch="normal"
    units-per-em="1024"
    ascent="896"
    descent="-128"
  />
    <missing-glyph />
    
    <glyph glyph-name="x" unicode="x" horiz-adv-x="1001"
d="M281 543q-27 -1 -53 -1h-83q-18 0 -36.5 -6t-32.5 -18.5t-23 -32t-9 -45.5v-76h912v41q0 16 -0.5 30t-0.5 18q0 13 -5 29t-17 29.5t-31.5 22.5t-49.5 9h-133v-97h-438v97zM955 310v-52q0 -23 0.5 -52t0.5 -58t-10.5 -47.5t-26 -30t-33 -16t-31.5 -4.5q-14 -1 -29.5 -0.5
t-29.5 0.5h-32l-45 128h-439l-44 -128h-29h-34q-20 0 -45 1q-25 0 -41 9.5t-25.5 23t-13.5 29.5t-4 30v167h911zM163 247q-12 0 -21 -8.5t-9 -21.5t9 -21.5t21 -8.5q13 0 22 8.5t9 21.5t-9 21.5t-22 8.5zM316 123q-8 -26 -14 -48q-5 -19 -10.5 -37t-7.5 -25t-3 -15t1 -14.5
t9.5 -10.5t21.5 -4h37h67h81h80h64h36q23 0 34 12t2 38q-5 13 -9.5 30.5t-9.5 34.5q-5 19 -11 39h-368zM336 498v228q0 11 2.5 23t10 21.5t20.5 15.5t34 6h188q31 0 51.5 -14.5t20.5 -52.5v-227h-327z" />
    

    
    <glyph glyph-name="iconjia" unicode="&#58911;" d="M902.947 228.973h-332.293v-332.346c0-32.387-26.267-58.628-58.655-58.628-32.387 0-58.654 26.241-58.654 58.628v332.346h-332.295c-32.414 0-58.654 26.241-58.654 58.628 0 32.375 26.243 58.628 58.654 58.628h332.293v332.346c0 32.375 26.267 58.628 58.654 58.628 32.388 0 58.655-26.254 58.655-58.628v-332.347h332.293c32.414 0 58.655-26.252 58.655-58.626-0.001-32.387-26.241-58.626-58.655-58.626z"  horiz-adv-x="1024" />

    
    <glyph glyph-name="iconjian" unicode="&#58912;" d="M903.053 229.25h-782.007c-32.391 0-58.649 26.256-58.649 58.647s26.256 58.661 58.649 58.661h782.009c32.406 0 58.649-26.27 58.649-58.661-0.001-32.393-26.245-58.647-58.649-58.647z"  horiz-adv-x="1024" />

    
    <glyph glyph-name="sousuo" unicode="&#58967;" d="M383.808 108.256C278.08 108.256 192 194.272 192 300c0 105.728 86.08 191.808 191.808 191.808S575.616 405.728 575.616 300C575.616 194.272 489.536 108.256 383.808 108.256zM383.808 463.328C293.76 463.328 220.416 390.048 220.416 300c0-90.048 73.344-163.264 163.392-163.264C473.92 136.672 547.2 209.952 547.2 300 547.2 390.048 473.92 463.328 383.808 463.328zM765.248-13.088c-6.528-8.256-18.624-9.6-26.88-3.072l-220.352 175.36c-8.256 6.592-9.664 18.688-3.072 26.944s18.688 9.6 27.008 3.072l220.224-175.36C770.432 7.328 771.84-4.832 765.248-13.088z"  horiz-adv-x="1024" />

    
    <glyph glyph-name="jiarugouwuche" unicode="&#59041;" d="M47.453659 762.04878C74.619931 762.04878 94.562357 746.744128 97.623967 723.782057L192.522455-2.941281C199.125094-52.461762 241.707612-87.121951 292.214634-87.121951L924.097561-87.121951 924.097561-37.170732 292.214634-37.170732C266.010856-37.170732 245.223581-20.250858 242.044326 3.593552L147.145838 730.31689C140.570715 779.631002 98.392929 812 47.453659 812L0 812 0 762.04878 47.453659 762.04878ZM624.390244 387.414634 624.390244 512.292683 574.439024 512.292683 574.439024 387.414634 449.560976 387.414634 449.560976 337.463415 574.439024 337.463415 574.439024 212.585366 624.390244 212.585366 624.390244 337.463415 749.268293 337.463415 749.268293 387.414634 624.390244 387.414634ZM974.04878 612.195122C1008.778837 612.195122 1030.350528 586.610093 1022.324773 556.112223L912.462853 146.627992C905.962736 125.558805 888.202902 112.682927 864.156098 112.682927L224.780488 112.682927 224.780488 62.731707 864.156098 62.731707C909.954877 62.731707 947.20278 89.736436 960.456529 132.811125L1070.600562 543.284203C1087.278302 606.658491 1040.49443 662.146341 974.04878 662.146341L149.853659 662.146341 149.853659 612.195122 974.04878 612.195122ZM399.609756-212 399.609756-162.04878 299.707317-162.04878 299.707317-212 399.609756-212ZM849.170732-212 849.170732-162.04878 749.268293-162.04878 749.268293-212 849.170732-212Z"  horiz-adv-x="1074" />

    
    <glyph glyph-name="baobao" unicode="&#58885;" d="M871.529423 3.072357l-31.900547 351.177198c-0.496304 35.534308-22.418592 65.889663-53.442166 78.808904-0.227174 69.631894-31.386848 132.716674-80.887238 177.816848-49.759287 45.351907-118.106932 73.14695-193.271842 73.14695-75.224262 0-143.57293-27.795043-193.313797-73.14695-49.517787-45.100174-80.659041-108.184955-80.929194-177.816848-30.997991-12.920264-52.91414-43.319621-53.375651-78.808904l-32.009018-352.150362 0-0.99363c0.069585-47.706535 38.748513-86.381369 86.408999-86.482677L785.186939-85.377114c47.702442 0.101307 86.342484 38.777165 86.413092 86.482677l0 1.02433L871.529423 3.072357 871.529423 3.072357zM344.602456 572.748964c42.578748 38.826284 101.746312 63.129806 167.429267 63.129806 65.640999 0 124.811634-24.304546 167.387311-63.129806 40.699957-37.220716 60.573587-77.634148 62.707181-133.118833L285.434891 439.630131l-5.301749 0C282.280038 495.114816 303.881009 535.529271 344.602456 572.748964L344.602456 572.748964zM229.209332 352.16201l0 1.045819c0.049119 22.75526 18.903535 41.577954 41.631166 41.624003l25.794479 0 384.64545 0 71.877027 0c1.329275 0 2.570545-0.276293 3.889587-0.394996 7.128351-1.003863 22.090111-9.635451 21.995967-9.058306 9.492188-7.701402 15.745612-19.225877 15.752776-32.169677l0-1.02433 9.618055-102.672404c-1.74883-0.954745-3.403516-2.165316-4.906753-3.619434-0.248663-0.234337-25.63689-24.178679-73.618695-47.77612-35.768645-17.59268-90.476641-37.912471-161.483858-44.971238-10.0591 18.712177-29.679973 31.470759-52.371788 31.470759-22.768563 0-42.410925-12.790304-52.470025-31.547507-70.397327 6.823406-123.811864 26.311249-158.514223 43.176358-46.264697 22.499433-70.250994 45.317115-70.761624 45.817512-2.819209 2.7486-6.16235 4.630461-9.706059 5.669116-0.24457 0.461511-0.48607 0.934279-0.723477 1.39579l9.359158 103.022375 0 0 0 0.014326L229.209332 352.164057 229.209332 352.16201zM785.193079-40.559373 238.816131-40.559373c-22.429849 0.045025-41.116443 18.446118-41.602513 40.805358l17.697057 194.492646c13.388938-10.247388 34.650171-24.695448 63.706951-39.018665 38.678928-19.065218 98.202603-41.116443 176.467107-48.699142 7.568373-24.272823 30.141484-41.935088 56.95006-41.935088 26.794249 0 49.412386 17.714454 56.95006 42.004673 27.217898 2.679016 53.871955 7.28901 79.68383 13.814634 34.981722 8.845459 68.51649 21.191648 99.67207 36.699853 26.539446 13.224186 46.883797 26.507724 60.821227 36.72032l17.630542-194.080254C826.323848-22.113255 807.668976-40.514347 785.193079-40.559373L785.193079-40.559373z"  horiz-adv-x="1024" />

    
    <glyph glyph-name="huidaodingbu" unicode="&#58903;" d="M511.99872 812C229.23008 812 0 582.76864 0 300c0-282.76992 229.23008-512 512-512 282.7712 0 512 229.23008 512 512C1024 582.76864 794.76992 812 511.99872 812zM743.37024 207.00032c-8.61696 0-16.47744 3.49312-22.1376 9.13792L542.752 394.53824l0-414.38592c0-17.24544-13.98528-31.2448-31.24608-31.2448-17.27744 0-31.27552 14.00064-31.27552 31.2448l0 0.02944L480.2304 393.568 303.33952 216.6592c-5.7088-5.96736-13.7536-9.67552-22.67904-9.67552-17.35168 0-31.41376 14.06208-31.41376 31.4304 0 8.6144 3.49184 16.43008 9.09312 22.0928l230.90816 230.9376c5.72288 6.03136 13.76768 9.81504 22.74048 9.81504 8.8128 0 16.79872-3.67744 22.47552-9.53856L765.61408 260.5376l0-0.02944c5.64736-5.6448 9.13792-13.47712 9.13792-22.12224C774.752 221.04704 760.70656 207.00032 743.37024 207.00032zM772.9216 530.1376 251.07712 530.1376c-17.2608 0-31.27552 14.03008-31.27552 31.2768 0 17.2928 14.01472 31.27808 31.27552 31.27808l521.84576 0c17.25952 0 31.27808-13.98528 31.27808-31.27808C804.19968 544.16896 790.1824 530.1376 772.9216 530.1376z"  horiz-adv-x="1024" />

    
    <glyph glyph-name="fenlei" unicode="&#58896;" d="M389.717979 425.708937 150.624533 425.708937c-45.192272 0-81.95864 36.766368-81.95864 81.95864L68.665893 746.761024c0 45.192272 36.766368 81.95864 81.95864 81.95864l239.093447 0c45.192272 0 81.959663-36.766368 81.959663-81.95864l0-239.093447C471.677643 462.475306 434.910251 425.708937 389.717979 425.708937zM150.624533 787.735228c-22.593578 0-40.974203-18.380626-40.974203-40.975227l0-239.093447c0-22.593578 18.380626-40.975227 40.974203-40.975227l239.093447 0c22.593578 0 40.975227 18.380626 40.975227 40.975227L430.693206 746.761024c0 22.593578-18.381649 40.975227-40.975227 40.975227L150.624533 787.736251zM874.697579 425.708937 635.605156 425.708937c-45.192272 0-81.959663 36.766368-81.959663 81.95864L553.645492 746.761024c0 45.192272 36.767392 81.95864 81.959663 81.95864l239.092423 0c45.192272 0 81.959663-36.766368 81.959663-81.95864l0-239.093447C956.657242 462.475306 919.889851 425.708937 874.697579 425.708937zM635.605156 787.735228c-22.593578 0-40.975227-18.380626-40.975227-40.975227l0-239.093447c0-22.593578 18.381649-40.975227 40.975227-40.975227l239.092423 0c22.593578 0 40.975227 18.380626 40.975227 40.975227L915.672806 746.761024c0 22.593578-18.381649 40.975227-40.975227 40.975227L635.605156 787.736251zM389.717979-58.357873 150.624533-58.357873c-45.192272 0-81.95864 36.767392-81.95864 81.959663L68.665893 262.694213c0 45.192272 36.766368 81.959663 81.95864 81.959663l239.093447 0c45.192272 0 81.959663-36.767392 81.959663-81.959663l0-239.092423C471.677643-21.591505 434.910251-58.357873 389.717979-58.357873zM150.624533 303.66944c-22.593578 0-40.974203-18.381649-40.974203-40.975227l0-239.092423c0-22.593578 18.380626-40.975227 40.974203-40.975227l239.093447 0c22.593578 0 40.975227 18.381649 40.975227 40.975227L430.693206 262.694213c0 22.593578-18.381649 40.975227-40.975227 40.975227L150.624533 303.66944zM874.697579-58.357873 635.605156-58.357873c-45.192272 0-81.959663 36.767392-81.959663 81.959663L553.645492 262.694213c0 45.192272 36.767392 81.959663 81.959663 81.959663l239.092423 0c45.192272 0 81.959663-36.767392 81.959663-81.959663l0-239.092423C956.657242-21.591505 919.889851-58.357873 874.697579-58.357873zM635.605156 303.66944c-22.593578 0-40.975227-18.381649-40.975227-40.975227l0-239.092423c0-22.593578 18.381649-40.975227 40.975227-40.975227l239.092423 0c22.593578 0 40.975227 18.381649 40.975227 40.975227L915.672806 262.694213c0 22.593578-18.381649 40.975227-40.975227 40.975227L635.605156 303.66944z"  horiz-adv-x="1024" />

    
    <glyph glyph-name="shechipin" unicode="&#59005;" d="M469 496.7c5.3-9.9 18-25.7 21.9-23.1 3.9 2.6 11.7 12.7 17.4 22.4l14.9 25.8c5.6 9.8 10.3 17.9 10.3 17.9 0 0-9.2 0.1-20.5 0.1l-30.7 0c-11.3 0-22.7-0.2-25.3-0.5-2.6-0.3-5.3-10.3 0-20.3L469 496.7zM501.2 458.8c-1.1-1.6 5-4.7 16.3-4.7l53.7 0c11.3 0 17.3 3.3 16.2 5-1.1 1.7-6.3 11.2-11.6 21.2l-20.1 37.6c-5.3 9.9-14.3 10.1-19.9 0.3l-22.4-38.8C507.8 469.7 502.3 460.4 501.2 458.8zM612.8 456.3c-1.2-1.2 7.1-2.2 18.4-2.2l65.8 0c11.3 0 14.8 7.2 7.8 16.1l-31.1 39.4c-7 8.9-14.7 18.3-15.6 19.1-0.9 0.8-6.3-6.5-11.9-16.3l-19-32.9C621.4 469.7 614 457.5 612.8 456.3zM582.5 496.3c5.3-9.9 12.8-20.3 16.7-23 3.9-2.7 17.2 12.6 22.8 22.4l13.2 22.9c5.6 9.8 2.4 20.2-0.6 20.6-3 0.4-14.7 0.7-26 0.7l-28.8 0c-11.3 0-20.4-0.1-20.4-0.2 0-0.1 4.4-8.2 9.7-18.2L582.5 496.3zM512 880c-273.5 0-496-222.5-496-496s222.5-496 496-496 496 222.5 496 496S785.5 880 512 880zM306.2 551.7l-20.6-34.2c-2.9-4.8-4.1-4.3-2.6 1.1l10.7 38.5c1.5 5.4-1.3 12.2-6.1 15l-35.2 20.4c-4.9 2.8-4.4 4.1 1.1 2.7l38.8-9.4c5.5-1.3 12.4 1.5 15.4 6.3l20.7 33c3 4.8 4.2 4.3 2.6-1.2l-11.3-38.9c-1.6-5.4 1.2-12.1 6.1-14.9l35.9-20.3c4.9-2.8 4.5-3.9-1-2.4l-39.3 10.3C315.9 559.3 309.1 556.5 306.2 551.7zM695.7 186l-13.4-6.9c-4-2.1-6.4-7.3-5.3-11.7l3.6-14.4c1.1-4.4 0.2-4.7-2-0.8l-7 12.7c-2.2 3.9-7.6 6.4-12 5.4l-14.4-3.3c-4.4-1-4.7-0.1-0.8 2l13.1 7c4 2.1 6.4 7.4 5.4 11.8l-3.3 14.1c-1 4.4 0 4.8 2.2 0.9l7.1-12.2c2.3-3.9 7.7-6.3 12.2-5.4l14 2.9C699.4 189.1 699.8 188.1 695.7 186zM758.2 407 576.5 173.5c-6.9-8.9-19.1-22.7-27-30.7 0 0-3.1-3.2-7.5-3.2-4.4 0-6.9 2.8-6.9 2.8-7.7 8.3-19.6 22.3-26.6 31.2L325.6 407.2c-7 8.9-18.6 31.7-16.3 38.7 2.4 7 10.3 19.8 17.6 28.3l58.6 68.3c7.3 8.6 29.1 27 38.1 29.1 9.1 2.2 25.7 3.9 37 3.9l171.4 0c11.3 0 40.8-4 48-9 7.2-4.9 18.7-16.2 25.7-25.1l52.4-66.3c7-8.9 14.5-22 16.6-29.1C776.9 439 765.2 415.9 758.2 407zM388.1 454.1l69.6 0c11.3 0 17.3 3.3 16.2 5-1.1 1.7-6.3 11.2-11.6 21.2L444.8 513c-5.3 9.9-12.7 15.7-13.7 14.8-1-1-7.8-8.7-15.1-17.3l-35-40.8C373.6 461.1 376.8 454.1 388.1 454.1zM705.2 432.8 378.7 432.8c-11.3 0-21 0-21.2 0-0.2 0 0.8-6.5 2-8.8 1.2-2.3 7.8-11.4 14.7-20.3l104.7-135.3c6.9-8.9 10-7.4 6.8 3.5l-25.2 86.6c-3.2 10.8-0.7 21.1 5.3 22.8s13.7-5.7 16.8-16.6l41-140.6c3.2-10.8 10.3-23.3 15.9-27.7 0 0 0 0 2.5 0 2.8 0 2.8 0 2.8 0 6.1 5.6 13.8 19 16.9 29.8l40.3 138.5c3.2 10.8 10.7 18.3 16.8 16.6 6.1-1.7 8.5-12 5.3-22.8l-24.3-83.5c-3.2-10.8-0.1-12.4 6.9-3.5L709.6 403.6c6.9 8.9 15.8 21.9 16.3 24.5 0.5 2.6 0.4 4.7 0.2 4.7C725.9 432.8 716.5 432.8 705.2 432.8z"  horiz-adv-x="1024" />

    
    <glyph glyph-name="pinpaiquming" unicode="&#58906;" d="M512 833.780937c-248.406556 0-449.779913-201.373357-449.779913-449.779913s201.373357-449.779913 449.779913-449.779913 449.779913 201.373357 449.779913 449.779913S760.406556 833.780937 512 833.780937zM430.873308 580.337667l0-164.825976 0-52.731992 0-92.442412 0-104.023168-60.265572 0L370.607736 633.069659l60.265572 0L430.873308 580.337667zM640.295991 166.314119l-77.440743 129.570008c-15.47239 25.914206-29.634948 43.541679-42.48665 52.883441-12.856819 9.340739-28.224832 14.012132-46.103014 14.012132l-29.494755 0 0 52.731992L501.986949 415.511691c27.520797 0 49.869804 8.030907 67.044976 24.106024 17.175171 16.071024 25.76378 37.163411 25.76378 63.278185 0 24.302499-7.834432 43.286875-23.503297 56.951083-15.668865 13.660114-38.46915 20.490683-68.400856 20.490683l-58.120722 0 0 52.731992 68.065212 0c45.39591 0 80.95273-10.952446 106.669438-32.845059 25.713638-21.896706 38.569434-52.535517 38.569434-91.904153 0-64.685231-34.551934-106.669438-103.656825-125.954667l0-1.506307c12.852726-5.423523 23.955598-13.157671 33.296337-23.202445 9.340739-10.048867 21.440311-27.224038 36.309974-51.526537l87.385233-139.815349L640.295991 166.315142z"  horiz-adv-x="1024" />

    
    <glyph glyph-name="aixin" unicode="&#58929;" d="M904.124188 712.5306c-43.212502 42.044294-102.760129 63.164974-179.024222 63.164974-21.12168 0-42.629097-3.71648-64.536045-10.952574-21.999085-7.333028-42.237163-17.305267-61.204303-29.626913-18.773272-12.417581-35.101201-23.95276-48.694785-34.905334-13.688719-10.852642-26.400101-22.38982-38.715551-34.612533-12.321646 12.321646-25.226297 23.759891-38.718749 34.612533-13.690718 10.853641-29.82278 22.584688-48.692786 34.905334-18.773671 12.41858-39.207417 22.293885-61.207901 29.626913-21.805216 7.333028-43.5109 10.952574-64.534646 10.952574-76.166159 0-135.808522-21.12068-179.024621-63.164974-43.220097-42.042495-64.632979-100.611585-64.632979-175.407674 0-22.782553 4.107615-46.15051 12.125179-70.302135 8.017564-24.151625 17.111398-44.781438 27.279904-61.793904 10.168106-17.111398 21.802618-33.538261 34.612533-49.672122 12.810315-16.129064 22.390819-27.281503 28.25984-33.439328 5.864424-6.057893 10.656775-10.458909 13.980921-13.295985L489.560262 1.595414c5.963357-5.953963 13.688719-9.287703 22.390819-9.287703s16.32693 3.035942 22.390819 9.287703l317.677814 305.946768c77.823036 77.833029 116.838384 154.289991 116.838384 229.381879C968.756167 611.919015 947.342686 670.488105 904.124188 712.5306zM807.819682 355.652364 511.949083 70.438539 215.588615 356.23297c-63.55431 63.556709-95.430498 123.883807-95.430498 181.085824 0 27.572306 3.715881 51.818667 10.951975 72.941346 7.332429 21.117682 16.620132 37.740212 28.060975 50.255727 11.34171 12.417581 25.225897 22.588685 41.553627 30.407384 16.330328 7.823696 32.266124 13.103116 47.911316 15.839261 15.645392 2.739143 32.266124 4.108215 49.86659 4.108215 17.793936 0 36.765473-4.302083 57.199019-13.004183 20.435545-8.704099 39.206818-19.457808 56.320615-32.754792 17.305267-13.102117 31.774857-25.421764 44.095903-36.764873 12.321646-11.34231 22.390819-21.805216 30.60425-31.38572 5.963557-7.429962 14.46959-11.148441 25.030429-11.148441 10.462906 0 18.773272 3.718479 25.034027 11.148441 8.1115 9.582503 18.278607 19.946476 30.602252 31.38572 12.317649 11.341311 26.983705 23.566022 44.095903 36.764873 17.304268 13.103116 35.88567 23.953759 56.319615 32.754792 20.436144 8.799034 39.403085 13.004183 57.199019 13.004183 17.797933 0 34.2186-1.469004 49.86799-4.108215 15.641395-2.639211 31.582587-8.015565 47.90552-15.839261 16.332926-7.821697 30.215314-17.991802 41.555625-30.407384 11.34231-12.41858 20.827679-29.138244 28.062973-50.255727 7.33103-21.12068 10.952574-45.36924 10.952574-72.941346C903.638517 479.923908 871.666194 419.593811 807.819682 355.652364z"  horiz-adv-x="1024" />

    
    <glyph glyph-name="shengyushijian" unicode="&#58882;" d="M512 896C229.228544 896 0 666.771456 0 384c0-282.771456 229.228544-512 512-512 282.771456 0 512 229.228544 512 512C1024 666.771456 794.771456 896 512 896zM512-64C264.583168-64 64 136.583168 64 384 64 631.427072 264.583168 832 512 832S960 631.427072 960 384C960 136.583168 759.416832-64 512-64zM512 725.332992l-42.667008 0 0-384 320.001024 0L789.334016 384 512 384 512 725.332992z"  horiz-adv-x="1024" />

    
    <glyph glyph-name="baobao1" unicode="&#58996;" d="M910.222234-128 113.777766-128C51.02935-128 0-76.97065 0-14.222234L0 782.222234C0 844.97065 51.02935 896 113.777766 896L910.222234 896C972.97065 896 1024 844.97065 1024 782.222234L1024-14.222234C1024-76.942234 973.027533-127.943117 910.222234-128L910.222234-128ZM133.688883 816.355533C103.9104 816.355533 79.644467 792.0896 79.644467 762.311117L79.644467 5.688883C79.644467-24.116634 103.9104-48.355533 133.688883-48.355533L890.311117-48.355533C920.116634-48.355533 944.355533-24.116634 944.355533 5.688883L944.355533 762.311117C944.355533 792.0896 920.116634 816.355533 890.311117 816.355533L133.688883 816.355533 133.688883 816.355533ZM763.704883 582.371789C749.084467 592.640205 739.555533 609.621555 739.555533 628.850022 739.555533 660.252672 765.01335 685.738906 796.444467 685.738906 827.875533 685.738906 853.33335 660.252672 853.33335 628.850022 853.33335 606.094438 839.992883 586.467789 820.65065 577.422438 796.046234 429.283789 667.022234 315.961088 512 315.961088 356.977766 315.961088 227.953766 429.283789 203.34935 577.422438 184.007117 586.467789 170.66665 606.094438 170.66665 628.850022 170.66665 660.252672 196.124467 685.738906 227.555533 685.738906 258.98665 685.738906 284.444467 660.252672 284.444467 628.850022 284.444467 609.621555 274.915533 592.640205 260.295117 582.371789 282.168883 463.303322 386.73065 372.850022 512 372.850022 637.297766 372.850022 741.831117 463.303322 763.704883 582.371789L763.704883 582.371789Z"  horiz-adv-x="1024" />

    
    <glyph glyph-name="hui" unicode="&#58924;" d="M292.903445 448.821131l201.597938 0 0-52.403259-201.597938 0 0 52.403259ZM529.881413 448.821131l202.265345 0 0-52.403259-202.265345 0 0 52.403259ZM292.903445 530.929596l201.597938 0 0-52.403259-201.597938 0 0 52.403259ZM513.244708 892.138485c-281.152359 0-509.071239-227.91888-509.071239-509.068753 0-281.152359 227.91888-509.071239 509.071239-509.071239 281.149873 0 509.068753 227.91888 509.068753 509.071239C1022.313461 664.219605 794.394581 892.138485 513.244708 892.138485zM257.857741 366.378342 257.857741 560.969127l236.643643 0 0 54.738562L205.121399 615.707689l0 30.706938 289.379984 0 0 58.744247 35.38003 0 0-58.744247 290.714798 0 0-30.706938L529.881413 615.707689l0-54.738562 237.31105 0 0-194.590785L529.881413 366.378342l0-57.40819c74.54079 0.667407 134.952933 1.334814 181.237673 2.002221-9.794851 9.346184-22.362486 20.470878-37.716576 33.376566l25.366439 21.361996c44.057564-38.049658 85.779825-75.655621 125.164297-112.81416l-26.701253-24.699032c-6.232861 6.226647-15.468432 15.462218-27.702985 27.704227-12.015812 12.015812-21.027671 20.802717-27.035578 26.366928-150.421365-2.225933-328.545715-6.340988-534.368078-12.348894l-3.67136 35.38003c5.340499 0 13.459997 0.10937 24.364707 0.333082 115.485031 0.667407 204.043854 1.553555 265.682684 2.669628l0 58.07684L257.857741 366.379584zM565.595768 184.473261l-28.03731-22.029403c-23.145477 27.5874-45.951658 52.953839-68.423514 76.099316l24.699032 19.691615C520.978924 232.202185 544.901178 207.612524 565.595768 184.473261zM222.477711 97.02554c-0.892362 0.667407-2.336546 1.558526-4.338767 2.669628-11.795829 7.34272-20.918301 12.797561-27.36866 16.353337 25.141484 36.266177 47.505212 76.876093 67.087457 121.827262l32.041752-13.686194C271.208367 183.471529 248.73154 141.083104 222.477711 97.02554zM674.07116 137.410501c-8.235082-40.053122-39.609427-59.521025-94.123034-58.40868L436.425786 79.001822c-58.300552-1.334814-86.560331 21.920033-84.778093 69.757085l0 85.4455 35.38003 0 0-81.10549c-0.224955-15.571588 4.005685-26.252586 12.683219-32.041752 8.453822-6.007906 23.80667-9.013102 46.061028-9.013102l125.831704 0c44.057564-1.334814 67.531152 11.68273 70.425735 39.052633 2.445916 12.457022 5.006174 30.816308 7.677045 55.071644 11.567146-5.121759 23.139263-9.346184 34.712623-12.683219C681.523251 170.564598 678.075602 151.873473 674.07116 137.410501zM798.56805 116.717155c-28.704717 37.158539-54.854147 69.310904-78.435862 96.460823l25.700764 19.024208c27.36866-30.039531 54.513608-61.195135 81.439815-93.455627L798.56805 116.717155zM529.881413 530.929596l202.265345 0 0-52.403259-202.265345 0 0 52.403259Z"  horiz-adv-x="1027" />

    
    <glyph glyph-name="same" unicode="&#59023;" d="M584.205-52.231c16.504 0 29.891-13.386 29.891-29.891 0-16.504-13.386-29.891-29.891-29.891h-230.899c-25.697 0-42.523 7.278-53.935 20.673-0.703 0.822-1.356 1.678-1.957 2.55-9.599 12.649-12.412 27.696-12.243 45.37 0.432 44.641 1.161 122.757 1.771 206.117 0.5 69.355 0.932 148.14 0.991 223.206-48.793-76.243-89.198-139.219-95.569-149.14-7.812-15.759-40.583-71.99-91.443-25.222-11.031 9.455-24.536 20.537-38.143 31.712-15.581 12.793-31.365 25.756-41.244 34.237-1.068 0.915-2.050 1.889-2.957 2.906-37.634 40.261-7.168 80.496-2.626 86.046l257.934 428.899c8.006 12.802 18.012 23.613 28.815 31.983 12.454 9.65 26.256 16.352 39.71 19.52 19.148 4.516 43.396 10.379 62.831 15.521 18.25 4.829 32.619 8.845 34.398 9.947 1.703 1.051 3.474 1.915 5.278 2.584 2.288 0.966 5.693 2.703 8.998 4.389 10.87 5.532 21.156 10.785 41.947 13.327 6.93 0.847 18.411 1.525 30.984 2.050 15.691 0.652 34.008 1.017 45.658 1.195 1.127 0.068 2.296 0.11 3.499 0.119h0.89l2.635-0.025 4.44 0.051 0.94-0.008v0.008l0.686-0.017 0.153-0.008c19.351-0.39 60.264-1.245 77.633-3.364 20.774-2.542 31.077-7.786 41.938-13.327 3.601-1.83 7.346-3.745 9.616-4.643 1.652-0.652 3.211-1.44 4.668-2.338l0.008 0.008c1.779-1.101 16.148-5.126 34.39-9.947 19.436-5.143 43.692-11.006 62.84-15.521 13.446-3.169 27.256-9.879 39.71-19.52 11.361-8.803 21.766-20.122 29.84-33.466l0.949-1.694 255.951-425.722c4.575-5.592 35.482-46.395-3.474-86.961-0.678-0.703-1.381-1.373-2.101-1.991l-0.11-0.093-0.017-0.017c-9.921-8.515-25.612-21.384-41.125-34.127-13.607-11.175-27.103-22.249-38.143-31.712-50.851-46.759-83.631 9.464-91.443 25.222-6.371 9.921-46.81 72.939-95.628 149.225-0.068-9.608-0.161-15.682-0.237-20.164-0.093-5.236-0.136-7.608 0.178-52.368 0.059-16.437-13.217-29.831-29.653-29.891-16.437-0.059-29.831 13.217-29.891 29.653-0.322 45.615-0.28 48.081-0.178 53.537 0.017 1.347 0.059 2.542 0.059 37.016 0 7.727 1.483 26.841 7.735 41.312 4.228 9.786 10.692 18.216 20.19 23.341 11.921 6.397 25.307 6.998 40.066-1.381 10.658-6.049 22.825-18.444 36.389-40.252l-0.059-0.034c49.962-78.082 101.669-158.366 101.872-158.671l-0.034-0.025c1.059-1.627 1.974-3.364 2.72-5.227 0 0-6.083-10.718-2.338-7.261l0.008-0.008 0.805 0.712c9.252 7.947 24.451 20.427 39.744 32.983 13.556 11.133 27.273 22.393 38.736 32.187 2.61 3.77-1.788 8.972-1.796 8.981l0.059 0.051c-0.729 0.94-1.415 1.94-2.042 2.991l-258.333 429.568c-4.202 6.947-9.481 12.734-15.132 17.114-5.6 4.338-11.455 7.278-16.818 8.54-18.47 4.355-42.633 10.218-64.483 15.996-20.198 5.338-37.982 10.735-47.157 15.149-6.142 2.482-9.819 4.372-13.437 6.21-6.041 3.075-11.777 5.998-22.079 7.261-16.284 1.983-53.969 2.779-71.694 3.135h-0.263l-0.398 0.008-4.287-0.042-2.313 0.017-1.796-0.076c-10.421-0.153-28.721-0.508-46.209-1.229-9.955-0.415-19.444-1.008-26.087-1.813-10.311-1.262-16.047-4.185-22.088-7.261-3.592-1.83-7.261-3.711-13.37-6.193-9.159-4.414-26.976-9.819-47.217-15.166-21.85-5.778-46.005-11.641-64.475-15.996-5.363-1.262-11.209-4.194-16.818-8.54-5.499-4.262-10.574-9.701-14.606-16.072l-0.534-0.923-257.214-427.831c-0.856-1.694-1.889-3.338-3.101-4.897-0.008-0.008-4.406-5.202-1.788-8.981 11.48-9.819 25.172-21.054 38.727-32.187 13.793-11.328 27.501-22.587 36.855-30.526 0.779 3.236 2.118 6.405 4.050 9.354 0.203 0.305 51.267 79.59 100.94 157.206l0.873 1.5c13.573 21.791 25.722 34.195 36.389 40.252 14.801 8.413 28.188 7.795 40.075 1.381 9.65-5.194 16.106-13.607 20.308-23.35l-0.102-0.042c6.244-14.454 7.718-33.534 7.718-41.261 0-55.283-0.568-148.648-1.237-241.311-0.618-84.19-1.347-162.027-1.771-206.354-0.042-4.77-0.068-8.006-0.042-8.667l0.008-0.008c0.186-0.212 2.321 0.339 8.625 0.339h230.899zM889.661 2.339l68.61-69.431c11.539-11.734 11.387-30.611-0.347-42.15-11.734-11.539-30.611-11.387-42.15 0.347l-66.576 67.373c-27.518-20.749-61.611-33.034-98.475-33.034-45.522 0-86.808 18.732-116.724 49.004-29.772 30.128-48.191 71.702-48.191 117.521 0 45.827 18.419 87.393 48.191 117.513 29.916 30.272 71.194 49.013 116.724 49.013 45.531 0 86.808-18.741 116.724-49.013 29.772-30.119 48.191-71.685 48.191-117.513 0-32.966-9.54-63.738-25.976-89.63zM750.722-14.775c29.035 0 55.283 11.861 74.227 31.026 19.088 19.317 30.907 46.098 30.907 75.718 0 29.62-11.819 56.392-30.907 75.71-18.936 19.165-45.192 31.034-74.227 31.034-29.035 0-55.291-11.87-74.227-31.034-19.088-19.317-30.907-46.090-30.907-75.71 0-29.62 11.819-56.401 30.907-75.718 18.944-19.165 45.192-31.026 74.227-31.026zM584.451 836.438h-0.144z"  horiz-adv-x="1171" />

    
    <glyph glyph-name="icon-test" unicode="&#59681;" d="M550.0928-75.264a466.9952 466.9952 0 0 0-72.1408-0.3072L477.8496-76.8l-22.5792 3.4816a459.8784 459.8784 0 0 0-29.184 4.5056 14018.56 14018.56 0 0 0-43.6736 6.912 236.8512 236.8512 0 0 0-81.7152 32.8192c-8.4992 5.7344-20.8384 12.288-26.7776 17.9712-1.536 1.3824-8.3456 5.12-12.1344 8.0896a460.8 460.8 0 1 0 541.2864 29.7472l-0.0512-0.3584c-0.3584-1.7408-1.6896-1.8432-3.072-2.1504a462.848 462.848 0 0 0-3.2256-2.56c-10.2912-13.9776-30.8224-24.4736-51.2-37.5808-19.0976-12.288-61.696-29.5936-97.1776-40.3968a457.472 457.472 0 0 0-43.52-11.1104c-31.0272-6.656-54.6304-9.3696-54.6304-9.3696l-0.1024 1.536z m0 0a460.4928 460.4928 0 0 1 98.2528 18.944 459.5712 459.5712 0 0 1 148.3776 77.9776 42.8544 42.8544 0 0 1 0.768 1.024c0.6144 1.024 1.536 1.28 2.4064 1.536l3.1744 2.56c2.4064 14.336-9.216 36.864-11.1104 45.4144A272.9984 272.9984 0 0 1 570.6752 281.6l-33.6384-61.184-36.2496-0.8704-34.2016 59.392a272.9472 272.9472 0 0 1-209.92-219.648c-1.0752-6.4-1.2288-32.0512 2.56-59.392 0.1024-0.7168 1.1264-1.792 2.56-2.9184a458.0864 458.0864 0 0 1 164.352-65.792l29.1328-4.5056c7.5264-0.9216 15.104-1.6896 22.6816-2.2528l29.9008 295.1168h22.3744l19.8656-294.8096z m-25.2928 401.664a156.8256 156.8256 0 1 1 0 313.6 156.8256 156.8256 0 0 1 0-313.6z"  horiz-adv-x="1024" />

    
    <glyph glyph-name="mima" unicode="&#58904;" d="M762 491.5h-35.8v73.7c0 127.2-92.7 230.7-206.6 230.7H503c-113.9 0-206.6-103.5-206.6-230.7v-73.7h-35.8v73.7c0 147 108.7 266.6 242.4 266.6h16.6C653.3 831.8 762 712.2 762 565.2v-73.7zM797.8-63.6h-573c-49.4 0-89.5 40.2-89.5 89.5v394c0 49.4 40.2 89.5 89.5 89.5h573c49.4 0 89.5-40.2 89.5-89.5V26c0.1-49.4-40.1-89.6-89.5-89.6z m-573 537.2c-29.6 0-53.7-24.1-53.7-53.7V26c0-29.6 24.1-53.7 53.7-53.7h573c29.6 0 53.7 24.1 53.7 53.7V419.9c0 29.6-24.1 53.7-53.7 53.7h-573zM511.3 61.8h-0.3c-9.9 0.2-17.8 8.3-17.6 18.2 0.7 41.4 1.2 86.6 0.9 108.7-49.1 9-90.4 55.4-90.4 105.9 0 59.2 48.2 107.4 107.4 107.4s107.4-48.2 107.4-107.4c0-33.8-16.2-66-43.3-86.2-8-5.9-19.2-4.3-25.1 3.7-5.9 7.9-4.3 19.1 3.7 25.1 18.3 13.7 28.9 34.6 28.9 57.5 0 39.5-32.1 71.6-71.6 71.6s-71.6-32.1-71.6-71.6c0-36.8 34.8-71.6 71.6-71.6 4.8 0 9.5-2 12.8-5.4 6.7-6.8 7.4-7.5 5.1-138.2-0.1-9.9-8.1-17.7-17.9-17.7z"  horiz-adv-x="1024" />

    
    <glyph glyph-name="shouyehui" unicode="&#58888;" d="M1138.858244 259.840352c-8.878613 0-17.616295 3.664189-23.958161 10.710708L632.636389 812.992018c-10.851638 12.120011-24.944674 18.884668-39.883292 18.884668-14.938618 0-29.172585-6.764657-39.883292-18.884668L71.592623 270.55106c-11.69722-13.247454-32.132122-14.374897-45.238646-2.677677-13.247454 11.83815-14.374897 31.991192-2.677676 45.238646L504.812552 855.552987c23.112579 26.072117 54.399119 40.447013 87.940545 40.447013 33.541426 0 64.687036-14.374897 87.799614-40.447013l482.263694-542.440958c11.83815-13.247454 10.569777-33.541426-2.677677-45.238646-6.060006-5.355354-13.670245-8.033031-21.280484-8.033031zM977.492981 321.004129v-320.757501c0-35.373521-28.749794-64.123314-64.123314-64.123314h-128.246628v256.493256c0 70.747041-57.499587 128.246628-128.246628 128.246628h-128.246628c-70.747041 0-128.246628-57.499587-128.246629-128.246628v-256.493256h-128.246628c-35.373521 0-64.123314 28.749794-64.123314 64.123314V321.004129H143.748968v-320.757501c0-70.747041 57.499587-128.246628 128.246628-128.246628h192.369942V192.61657c0 35.373521 28.749794 64.123314 64.123314 64.123314h128.246628c35.373521 0 64.123314-28.749794 64.123314-64.123314v-320.61657H913.228737c70.747041 0 128.246628 57.499587 128.246628 128.246628V321.004129h-63.982384z"  horiz-adv-x="1429" />

    
    <glyph glyph-name="shangchangPOS" unicode="&#58893;" d="M373.752 587.098c-4.259 2.133-9.807 0.43-11.948-3.844l-35.407-70.828c-2.14-4.259-0.437-9.814 3.837-11.941 1.281-0.852 2.556-0.852 3.844-0.852 3.415 0 6.4 1.711 8.104 5.118l35.414 70.828c2.563 3.844 0.859 9.385-3.844 11.518zM423.254 368.645c-30.725 8.104-53.332 35.407-53.332 68.265 0-32.851-22.621-60.584-53.339-68.265v-232.964h106.671v232.964zM405.336 224.005c-0.060-9.875-8.045-17.864-17.912-17.932-9.879 0.069-17.864 8.058-17.924 17.927-0 6.412 3.837 11.953 8.963 14.938v41.384c-5.126 2.985-8.963 8.533-8.963 14.926 0.060 9.875 8.045 17.864 17.912 17.932 9.881-0.065 17.868-8.057 17.924-17.927 0-6.398-3.844-11.946-8.963-14.931v-40.962c5.548-3.408 8.963-8.533 8.963-15.355zM445.009 587.098c-4.267 2.133-9.814 0.43-11.948-3.844l-35.407-70.828c-2.133-4.259-0.43-9.814 3.837-11.941 1.281-0.852 2.556-0.852 3.844-0.852 3.415 0 6.4 1.711 8.104 5.118l35.421 70.828c2.133 3.844 0.415 9.385-3.851 11.518zM706.994 368.645c-30.718 8.104-53.346 35.407-53.346 68.265 0-39.251-31.562-70.82-70.82-70.82s-70.835 31.57-70.835 70.82c0-0.049 0-0.107 0-0.165 0-39.022-31.634-70.656-70.656-70.656-0.058 0-0.116 0-0.174 0l0.009-230.83h266.23l-0.408 233.386zM576.435 334.083l12.37-12.377-50.347-50.347-12.377 12.377 50.354 50.347zM589.228 221.012l-12.785 12.377 50.332 50.347 12.377-12.377-49.924-50.347zM538.881 221.012l-12.377 12.377 100.271 100.271 12.377-12.377-100.271-100.271zM661.759 582.831c-2.14 4.267-7.674 5.97-11.955 3.844-4.259-2.133-5.963-7.681-3.837-11.948l35.421-70.82c1.697-2.985 4.689-5.126 8.096-5.126 1.289 0 2.563 0.43 3.851 0.859 4.259 2.133 5.963 7.681 3.837 11.948l-35.414 71.243zM511.993 896c-282.874 0-511.993-229.119-511.993-512 0-282.874 229.119-512 511.993-512 282.881 0 512 229.126 512 512 0.007 282.881-229.535 512-512 512zM316.584 667.733h390.411c9.872-0.060 17.858-8.047 17.918-17.913-0.060-9.877-8.047-17.863-17.913-17.923l-390.416-0c-9.87 0.061-17.855 8.048-17.911 17.913 0.422 10.249 8.104 17.923 17.911 17.923zM795.733 437.339c0-32.851-22.614-60.584-53.339-68.265v-232.964h35.421c9.87-0.064 17.854-8.049 17.918-17.912-0.064-9.877-8.048-17.863-17.912-17.931l-532.058-0c-9.871 0.069-17.854 8.054-17.918 17.92 0.060 9.877 8.047 17.864 17.913 17.924l35.412 0v232.964c-30.718 8.104-53.332 35.414-53.332 68.265v17.918h567.895v-17.918zM227.838 472.753l70.835 142.085h425.81l70.835-142.085h-567.479zM511.993 587.942c-4.689 0-8.955-3.837-8.955-8.955v-70.82c0-5.126 3.837-8.963 8.955-8.963 5.126 0 8.963 3.837 8.963 8.963v70.82c-0.422 5.126-4.259 8.955-8.963 8.955zM587.524 583.253c-2.57 4.267-7.688 5.977-11.955 3.415-2.762-1.452-4.614-4.302-4.614-7.584 0-1.61 0.446-3.117 1.22-4.402l38.814-70.782c1.697-2.985 4.682-4.696 7.667-4.696 1.289 0 2.985 0.43 4.274 1.281 2.76 1.453 4.61 4.302 4.61 7.582 0 1.608-0.444 3.112-1.217 4.397l-38.8 70.789z"  horiz-adv-x="1033" />

    
    <glyph glyph-name="unie644" unicode="&#58625;" d="M512 468.992q34.016 0 59.008-24 12-12 18.496-27.488t6.496-32.512q0-34.016-24.992-59.008-4.992-4.992-10.016-8.512t-11.008-6.496-12.512-4.992-12.992-3.488-12.512-1.504q-35.008 0-59.488 24.992t-24.512 59.488 24 59.488q8 7.008 17.504 12.992t20.512 8.512 22.016 2.496zM844 468.992q35.008 0 59.008-24 8-8 13.504-17.504t8.512-20.512 3.008-22.016q0-34.016-24.992-59.008-4.992-6.016-12-10.496t-14.496-7.488-16-4.992-16.512-2.016q-35.008 0-59.488 24.992t-24.512 59.488 24.992 59.488q11.008 11.008 27.008 17.504t32 6.496zM179.008 468.992q35.008 0 59.008-24 8-8 13.504-17.504t8.512-20.512 3.008-22.016q0-34.016-24.512-59.008t-59.488-24.992-59.008 24.992q-12 12-18.496 27.488t-6.496 31.488q0 35.008 24.992 60 11.008 11.008 27.008 17.504t32 6.496z"  horiz-adv-x="1024" />

    
    <glyph glyph-name="home" unicode="&#58626;" d="M927.744-70.65599999999995H135.168c-16.384 0-32.768 8.192-43.008 20.48-10.24 14.336-14.336 30.72-10.24 47.104 40.96 208.896 210.944 364.544 415.744 380.928 8.192 2.048 14.336 2.048 24.576 2.048v-20.48c-8.192 0-14.336 0-22.528-2.048-196.608-14.336-360.448-163.84-399.36-364.544-2.048-10.24 0-22.528 8.192-30.72 6.144-8.192 16.384-12.288 26.624-12.288h792.576c10.24 0 20.48 4.096 26.624 12.288 6.144 8.192 10.24 18.432 8.192 30.72-24.576 131.072-104.448 243.712-217.088 307.2-12.288 8.192-26.624 14.336-38.912 20.48l8.192 18.432c14.336-6.144 28.672-14.336 40.96-20.48 118.784-67.584 200.704-184.32 227.328-321.536 4.096-16.384 0-32.768-12.288-47.104-10.24-12.288-26.624-20.48-43.008-20.48z m-399.36 430.08h-4.096v20.48h6.144l-2.048-20.48zM536.576 359.424c-129.024 0-235.52 106.496-235.52 235.52S407.552 830.4639999999999 536.576 830.4639999999999s235.52-106.496 235.52-235.52-106.496-235.52-235.52-235.52z m0 450.56c-118.784 0-215.04-96.256-215.04-215.04s96.256-215.04 215.04-215.04 215.04 96.256 215.04 215.04S655.36 809.984 536.576 809.984z"  horiz-adv-x="1024" />

    
    <glyph glyph-name="gouwuche" unicode="&#58642;" d="M347.136 112.63999999999999q19.456 0 36.864-7.168t30.72-19.968 20.48-30.208 7.168-36.864-7.168-36.864-20.48-30.208-30.72-20.48-36.864-7.68q-20.48 0-37.376 7.68t-30.208 20.48-20.48 30.208-7.168 36.864 7.168 36.864 20.48 30.208 30.208 19.968 37.376 7.168zM773.12 110.59199999999998q19.456 0 37.376-7.168t30.72-19.968 20.48-30.208 7.68-36.864-7.68-36.864-20.48-30.208-30.72-20.48-37.376-7.68-36.864 7.68-30.208 20.48-20.48 30.208-7.68 36.864 7.68 36.864 20.48 30.208 30.208 19.968 36.864 7.168zM945.152 692.2239999999999q28.672 0 44.544-7.68t22.528-18.944 6.144-24.064-3.584-22.016-12.8-37.888-22.016-62.976-24.064-68.096-17.92-53.248q-13.312-40.96-33.792-56.832t-50.176-15.872l-34.816 0-66.56 0-87.04 0-95.232 0-253.952 0 15.36-92.16 516.096 0q49.152 0 49.152-41.984 0-20.48-9.728-35.328t-38.4-14.848l-49.152 0-95.232 0-117.76 0-119.808 0-98.304 0-56.32 0q-20.48 0-34.304 9.216t-23.04 24.064-14.848 32.256-8.704 32.768q-1.024 6.144-5.632 29.696t-11.264 58.88-14.848 78.848-16.384 87.552q-19.456 103.424-44.032 230.4l-76.8 0q-15.36 0-25.6 7.68t-16.896 18.432-9.216 23.04-2.56 22.528q0 20.48 13.824 33.792t37.376 13.312l22.528 0 20.48 0 25.6 0 34.816 0q20.48 0 32.768-6.144t19.456-15.36 10.24-19.456 5.12-17.408q2.048-8.192 4.096-23.04t4.096-30.208q3.072-18.432 6.144-38.912l700.416 0z"  horiz-adv-x="1024" />

    
    <glyph glyph-name="arrow-left" unicode="&#58648;" d="M399.399 383.754l292.155 292.16c12.278 12.27 12.278 32.186 0 44.457-12.27 12.278-32.186 12.278-44.457 0l-314.387-314.389c-12.281-12.27-12.281-32.186 0-44.457l314.388-314.388c6.137-6.14 14.183-9.211 22.228-9.211s16.092 3.071 22.228 9.211c12.281 12.27 12.281 32.186 0 44.457l-292.157 292.161z"  horiz-adv-x="1024" />

    
    <glyph glyph-name="jiagouwuche" unicode="&#59115;" d="M594.231038 249.476899H577.479104c-12.183224 0-22.031331 9.848106-22.03133 22.03133V377.908388H448.641508c-12.183224 0-22.031331 9.848106-22.031331 22.03133v16.54888c0 12.183224 9.848106 22.031331 22.031331 22.031331h106.704739v112.694824c0 12.183224 9.848106 22.031331 22.03133 22.031331h16.751934c12.183224 0 22.031331-9.848106 22.03133-22.031331v-112.593298h113.100932c12.183224 0 22.031331-9.848106 22.031331-22.03133v-16.54888c0-12.183224-9.848106-22.031331-22.031331-22.03133H616.262368V271.609756c0-12.183224-9.848106-22.132857-22.03133-22.132857z m420.321237 322.550862l-56.956573-362.146341c-6.193139-49.748166-51.88023-90.054333-104.065041-90.054333L263.761079 106.222487c-19.188578-0.710688-45.280984 0.710688-50.966488 13.706127l-61.423756 423.265516-34.925242 197.774341c-2.132064 17.361095-18.274836 31.270276-33.909975 31.270276H36.44242c-19.899266 0-36.245092 15.939718-36.245092 35.432877s16.244299 35.432877 36.245092 35.432877h46.093198c52.793972 0 99.191751-40.407694 105.486417-91.983343l34.823716-196.962126L277.568734 177.189768 850.586382 190.591315c18.071783 0.101527 33.199286 14.010708 35.229823 29.747372l56.956574 362.146342c1.421376 11.878644-2.030537 24.97561-9.238945 32.996232-4.670236 5.17787-10.558794 7.716042-17.361095 7.716042h-538.092405c-19.899266 0-36.245092 15.939718-36.245092 35.432877s16.244299 35.432877 36.245092 35.432878h538.295459c27.716835 0 52.997026-11.269482 71.576442-31.77791 21.219116-23.148126 30.762641-56.042832 26.60004-90.257387zM326.504684 13.934563c39.900059 0 72.388658-31.77791 72.388658-70.967282 0-39.189371-32.387071-70.967281-72.388658-70.967281s-72.388658 31.77791-72.388657 70.967281c0 39.290898 32.387071 70.967281 72.388657 70.967282z m506.720603 0c39.900059 0 72.388658-31.77791 72.388658-70.967282 0-39.189371-32.387071-70.967281-72.388658-70.967281s-72.388658 31.77791-72.388657 70.967281c-0.101527 39.290898 32.285544 70.967281 72.388657 70.967282z"  horiz-adv-x="1038" />

    


  </font>
</defs>
</svg>
